Coordinates
version=1
nRows=10
nColumns=27
inDegrees=yes

Units are S.I. units (second, meters, Newtons, ...)
If the header above contains a line with 'inDegrees', this indicates whether rotational values are in degrees (yes) or radians (no).

endheader
time	pelvis_rotation	pelvis_tilt	pelvis_list	pelvis_tx	pelvis_ty	pelvis_tz	hip_flexion_r	hip_adduction_r	hip_rotation_r	knee_angle_r	knee_rotation_r	knee_adduction_r	knee_angle_r_beta	ankle_angle_r	subtalar_angle_r	mtp_angle_r	hip_flexion_l	hip_adduction_l	hip_rotation_l	knee_angle_l	knee_rotation_l	knee_adduction_l	knee_angle_l_beta	ankle_angle_l	subtalar_angle_l	mtp_angle_l
      4.78500000	     10.13767407	    -27.13273393	      4.54151391	     -0.00949630	      0.44288596	     -1.14682637	    126.79619036	    -48.47442669	     32.25338504	    108.81099154	      0.00000000	      9.89089174	      1.89911006	     18.57036942	      0.00000000	      0.00000000	    119.81421143	    -25.59546977	     22.34471737	    107.62323291	      0.00000000	     -9.95099487	      1.87837977	     16.58881810	      0.00000000	      0.00000000
      4.79000000	     10.15945498	    -27.04471400	      4.51041801	     -0.00921432	      0.44159007	     -1.14690678	    126.88927951	    -48.47729772	     32.44124620	    108.96811274	      0.00000000	      9.89105347	      1.90185235	     18.61255369	      0.00000000	      0.00000000	    119.92600053	    -25.52514853	     22.50272077	    107.81522974	      0.00000000	     -9.95115259	      1.88173074	     16.62465858	      0.00000000	      0.00000000
      4.79500000	     10.17426226	    -26.95289284	      4.48224977	     -0.00894345	      0.44033103	     -1.14699197	    126.97648779	    -48.47266803	     32.62535151	    109.11922795	      0.00000000	      9.89124315	      1.90448980	     18.65615428	      0.00000000	      0.00000000	    120.02904032	    -25.46628678	     22.65348749	    108.00197843	      0.00000000	     -9.95128763	      1.88499012	     16.64602773	      0.00000000	      0.00000000
      4.80000000	     10.23527277	    -26.85161168	      4.56625424	     -0.00869183	      0.43908493	     -1.14715978	    127.19673004	    -48.45339595	     32.98681110	    109.26824839	      0.00000000	      9.89143055	      1.90709070	     18.73158914	      0.00000000	      0.00000000	    120.04427374	    -25.41170364	     22.67157815	    108.17365214	      0.00000000	     -9.95142985	      1.88798639	     16.70640847	      0.00000000	      0.00000000
      4.80500000	     10.23985270	    -26.80216342	      4.55483451	     -0.00850248	      0.43787022	     -1.14722946	    127.34131549	    -48.42140820	     33.17924648	    109.41827385	      0.00000000	      9.89156090	      1.90970914	     18.76293348	      0.00000000	      0.00000000	    120.18503343	    -25.38140291	     22.80053084	    108.35020165	      0.00000000	     -9.95158729	      1.89106776	     16.71816764	      0.00000000	      0.00000000
      4.81000000	     10.26841883	    -26.76743208	      4.52522809	     -0.00833522	      0.43669976	     -1.14730027	    127.48424598	    -48.42986456	     33.35271218	    109.55584535	      0.00000000	      9.89167842	      1.91211022	     18.80152301	      0.00000000	      0.00000000	    120.34228276	    -25.30993653	     22.94270044	    108.51791675	      0.00000000	     -9.95173917	      1.89399494	     16.73321683	      0.00000000	      0.00000000
      4.81500000	     10.30346413	    -26.72622732	      4.57615761	     -0.00817928	      0.43555993	     -1.14742170	    127.71995718	    -48.40422950	     33.63853158	    109.68982826	      0.00000000	      9.89188992	      1.91444866	     18.79204437	      0.00000000	      0.00000000	    120.44667392	    -25.28308022	     22.99159236	    108.67816035	      0.00000000	     -9.95188233	      1.89679172	     16.74455817	      0.00000000	      0.00000000
      4.82000000	     10.34412697	    -26.73381297	      4.45139799	     -0.00809602	      0.43449312	     -1.14740949	    127.78597902	    -48.48148832	     33.66101702	    109.81955078	      0.00000000	      9.89208559	      1.91671274	     18.84353330	      0.00000000	      0.00000000	    120.69934734	    -25.14865504	     23.22875267	    108.82720942	      0.00000000	     -9.95198287	      1.89939312	     16.72055721	      0.00000000	      0.00000000
      4.82500000	     10.34637289	    -26.75893286	      4.41606083	     -0.00803359	      0.43341397	     -1.14743656	    127.96306185	    -48.46670048	     33.79415405	    109.93988127	      0.00000000	      9.89217174	      1.91881291	     18.87526790	      0.00000000	      0.00000000	    120.92091384	    -25.11862020	     23.36931528	    108.97781480	      0.00000000	     -9.95217272	      1.90202168	     16.71425136	      0.00000000	      0.00000000
      4.83000000	     10.37908820	    -26.77383862	      4.41143576	     -0.00798789	      0.43240740	     -1.14752431	    128.16556964	    -48.47562513	     33.96824219	    110.04455991	      0.00000000	      9.89232078	      1.92063989	     19.00017607	      0.00000000	      0.00000000	    121.09940186	    -25.06501540	     23.46637885	    109.11574373	      0.00000000	     -9.95234967	      1.90442899	     16.72975983	      0.00000000	      0.00000000
